<?xml version="1.0" standalone="no"?>
<!DOCTYPE svg PUBLIC "-//W3C//DTD SVG 20010904//EN"
 "http://www.w3.org/TR/2001/REC-SVG-20010904/DTD/svg10.dtd">
<svg version="1.0" xmlns="http://www.w3.org/2000/svg"
 width="512.000000pt" height="512.000000pt" viewBox="0 0 512.000000 512.000000"
 preserveAspectRatio="xMidYMid meet">
<metadata>
Created by potrace 1.15, written by Peter Selinger 2001-2017
</metadata>
<g transform="translate(0.000000,512.000000) scale(0.100000,-0.100000)"
fill="#fff" stroke="none">
<path d="M960 5104 c-232 -62 -422 -257 -469 -482 -15 -74 -16 -4048 0 -4124
6 -29 31 -95 56 -147 63 -131 153 -221 284 -284 52 -25 118 -50 147 -56 74
-15 3090 -15 3164 0 29 6 95 31 147 56 131 63 221 153 284 284 25 52 50 118
56 147 8 37 11 556 11 1700 l0 1647 -638 638 -637 637 -1175 -1 c-1000 0
-1183 -3 -1230 -15z m2073 -676 c5 -402 9 -434 71 -556 66 -131 163 -228 290
-290 125 -61 147 -64 549 -69 l367 -5 0 -1464 c0 -1403 -1 -1466 -19 -1513
-24 -65 -63 -114 -119 -151 -59 -39 -67 -38 -37 6 33 48 51 135 39 182 -6 21
-168 303 -362 628 l-352 590 0 351 0 350 42 6 c48 6 84 30 116 78 40 58 17
138 -51 179 -30 19 -53 20 -423 20 -389 0 -391 0 -424 -22 -46 -31 -74 -89
-66 -133 12 -64 85 -125 148 -125 l23 0 -2 -356 -3 -357 -73 -141 c-41 -77
-179 -346 -308 -596 -230 -448 -234 -456 -233 -515 0 -67 25 -133 68 -178 l26
-28 -618 3 -617 3 -58 23 c-77 31 -149 103 -176 177 l-21 56 0 1979 c0 1964 0
1980 20 2033 27 71 104 149 174 176 49 19 80 20 1037 20 l987 1 5 -362z m977
-586 c-397 -3 -460 8 -550 98 -90 90 -100 146 -100 550 l1 305 472 -475 471
-475 -294 -3z m-470 -1191 c13 -25 13 -27 -6 -45 -11 -12 -36 -16 -96 -16
l-81 0 6 -396 6 -395 354 -607 c194 -334 357 -620 361 -635 16 -67 -42 -165
-111 -188 -48 -16 -1558 -8 -1588 9 -52 28 -87 88 -88 151 -1 40 16 78 122
286 68 132 178 346 244 475 66 129 153 299 193 376 l74 142 0 391 0 391 -79 0
c-59 0 -84 4 -95 16 -19 18 -19 20 -6 45 10 18 25 19 395 19 370 0 385 -1 395
-19z"/>
<path d="M3253 3370 c-89 -54 -83 -189 11 -234 67 -31 136 -9 176 56 26 43 25
81 -2 129 -37 66 -121 88 -185 49z"/>
<path d="M2913 3062 c-54 -42 -45 -125 16 -157 38 -19 34 -19 72 0 17 9 36 30
44 48 35 83 -63 164 -132 109z"/>
<path d="M3288 2984 c-31 -16 -58 -61 -58 -95 0 -31 65 -90 93 -85 12 3 25 5
28 5 4 1 18 13 33 27 43 44 31 114 -25 147 -36 20 -36 20 -71 1z"/>
<path d="M2915 1491 c-22 -10 -52 -31 -66 -47 -14 -16 -126 -226 -248 -467
-163 -320 -221 -445 -217 -461 3 -13 15 -35 27 -49 l20 -27 752 0 c576 1 756
3 768 13 8 7 24 26 34 43 l18 32 -248 433 c-136 239 -252 439 -257 446 -6 8
-23 1 -59 -23 -44 -30 -59 -34 -113 -34 -71 0 -117 21 -184 82 -50 46 -114 78
-157 78 -16 0 -48 -9 -70 -19z"/>
</g>
</svg>
