<?xml version="1.0" standalone="no"?>
<!DOCTYPE svg PUBLIC "-//W3C//DTD SVG 20010904//EN"
 "http://www.w3.org/TR/2001/REC-SVG-20010904/DTD/svg10.dtd">
<svg version="1.0" xmlns="http://www.w3.org/2000/svg"
 width="1600.000000pt" height="1600.000000pt" viewBox="0 0 1600.000000 1600.000000"
 preserveAspectRatio="xMidYMid meet">
<metadata>
Created by potrace 1.15, written by Peter Selinger 2001-2017
</metadata>
<g transform="translate(0.000000,1600.000000) scale(0.100000,-0.100000)"
fill="#fff" stroke="none">
<path d="M5196 15484 c-188 -34 -383 -120 -534 -234 -107 -81 -2375 -2355
-2436 -2441 -102 -146 -180 -336 -211 -515 -13 -76 -15 -680 -15 -5111 0
-5600 -7 -5085 70 -5248 97 -209 279 -358 504 -415 78 -20 116 -20 3510 -20
l3431 -1 62 -92 c255 -381 658 -751 1078 -989 731 -415 1599 -527 2420 -313
438 114 847 321 1215 614 122 97 394 369 491 491 411 516 651 1112 710 1764
23 247 3 625 -46 886 -187 996 -852 1862 -1777 2313 l-168 82 0 4296 c0 4258
0 4296 -20 4375 -57 225 -206 407 -415 504 -162 76 210 70 -4007 69 -3239 -1
-3794 -3 -3862 -15z m7654 -508 c49 -26 98 -74 123 -121 l22 -40 3 -4201 2
-4202 -82 19 c-268 59 -671 85 -945 60 -646 -59 -1250 -301 -1758 -705 -129
-103 -398 -372 -501 -501 -404 -508 -646 -1112 -705 -1758 -15 -163 -6 -543
16 -702 33 -244 97 -497 180 -713 l42 -112 -3281 2 -3281 3 -40 22 c-47 25
-95 74 -121 123 -18 34 -19 178 -22 4943 l-2 4907 1173 0 c1144 0 1176 1 1253
20 277 71 485 278 554 554 19 77 20 113 20 1253 l0 1173 3658 -2 c3545 -3
3658 -4 3692 -22z m-7852 -1411 c-3 -836 -4 -882 -22 -915 -26 -49 -74 -98
-121 -123 l-40 -22 -1093 -3 -1094 -2 23 32 c29 44 2196 2215 2279 2285 l65
54 3 -213 c1 -117 1 -609 0 -1093z m7601 -7591 c605 -79 1160 -352 1592 -783
442 -442 717 -1014 790 -1641 16 -135 16 -464 0 -600 -148 -1281 -1150 -2284
-2431 -2431 -153 -18 -489 -15 -638 5 -343 46 -644 141 -942 297 -727 382
-1259 1095 -1414 1895 -39 204 -49 314 -49 534 0 113 5 250 12 305 79 637 352
1199 795 1640 481 478 1092 751 1786 799 98 7 382 -5 499 -20z"/>
<path d="M4145 10476 c-91 -43 -145 -126 -145 -226 0 -100 54 -183 145 -226
l50 -24 2055 0 2055 0 50 24 c91 43 145 126 145 226 0 100 -54 183 -145 226
l-50 24 -2055 0 -2055 0 -50 -24z"/>
<path d="M9145 10476 c-91 -43 -145 -126 -145 -226 0 -100 54 -183 145 -226
l50 -24 555 0 c537 0 556 1 600 21 60 27 98 64 126 124 60 127 4 275 -126 334
-44 20 -63 21 -600 21 l-555 0 -50 -24z"/>
<path d="M4145 9476 c-91 -43 -145 -126 -145 -226 0 -100 54 -183 145 -226
l50 -24 2555 0 c2549 0 2555 0 2600 21 60 27 98 64 126 124 60 127 4 275 -126
334 -45 21 -51 21 -2600 21 l-2555 0 -50 -24z"/>
<path d="M4145 7976 c-91 -43 -145 -126 -145 -226 0 -100 54 -183 145 -226
l50 -24 2805 0 c2800 0 2805 0 2850 21 130 59 186 207 126 334 -28 60 -66 97
-126 124 -45 21 -50 21 -2850 21 l-2805 0 -50 -24z"/>
<path d="M4145 6976 c-91 -43 -145 -126 -145 -226 0 -100 54 -183 145 -226
l50 -24 2180 0 2180 0 50 24 c91 43 145 126 145 226 0 100 -54 183 -145 226
l-50 24 -2180 0 -2180 0 -50 -24z"/>
<path d="M3145 3476 c-60 -28 -97 -66 -124 -126 -19 -42 -21 -65 -21 -350 0
-285 2 -308 21 -350 27 -60 64 -98 124 -126 127 -60 275 -4 334 126 19 42 21
65 21 350 0 300 -1 306 -24 355 -60 127 -206 180 -331 121z"/>
<path d="M4395 3476 c-60 -28 -97 -66 -124 -126 -19 -42 -21 -65 -21 -350 0
-285 2 -308 21 -350 27 -60 64 -98 124 -126 127 -60 275 -4 334 126 19 42 21
65 21 350 0 300 -1 306 -24 355 -60 127 -206 180 -331 121z"/>
<path d="M5645 3476 c-60 -28 -97 -66 -124 -126 -19 -42 -21 -65 -21 -350 0
-285 2 -308 21 -350 27 -60 64 -98 124 -126 127 -60 275 -4 334 126 19 42 21
65 21 350 0 300 -1 306 -24 355 -60 127 -206 180 -331 121z"/>
<path d="M6895 3476 c-60 -28 -97 -66 -124 -126 -19 -42 -21 -65 -21 -350 0
-285 2 -308 21 -350 27 -60 64 -98 124 -126 127 -60 275 -4 334 126 19 42 21
65 21 350 0 300 -1 306 -24 355 -60 127 -206 180 -331 121z"/>
<path d="M8145 3476 c-60 -28 -97 -66 -124 -126 -19 -42 -21 -65 -21 -350 0
-285 2 -308 21 -350 27 -60 64 -98 124 -126 127 -60 275 -4 334 126 19 42 21
65 21 350 0 300 -1 306 -24 355 -60 127 -206 180 -331 121z"/>
<path d="M12145 4976 c-60 -28 -97 -66 -124 -126 -20 -44 -21 -63 -21 -697 l0
-653 -652 0 -653 0 -50 -24 c-91 -43 -145 -126 -145 -226 0 -100 54 -183 145
-226 l50 -24 653 0 652 0 0 -652 0 -653 24 -50 c43 -91 126 -145 226 -145 100
0 183 54 226 145 l24 50 0 653 0 652 653 0 652 0 50 24 c127 60 180 206 121
331 -28 60 -66 97 -126 124 -44 20 -63 21 -697 21 l-653 0 0 653 c0 634 -1
653 -21 697 -42 93 -129 150 -229 150 -37 0 -71 -8 -105 -24z"/>
</g>
</svg>
