<?xml version="1.0" standalone="no"?>
<!DOCTYPE svg PUBLIC "-//W3C//DTD SVG 20010904//EN"
 "http://www.w3.org/TR/2001/REC-SVG-20010904/DTD/svg10.dtd">
<svg version="1.0" xmlns="http://www.w3.org/2000/svg"
 width="225.000000pt" height="225.000000pt" viewBox="0 0 225.000000 225.000000"
 preserveAspectRatio="xMidYMid meet">
<metadata>
Created by potrace 1.15, written by Peter Selinger 2001-2017
</metadata>
<g transform="translate(0.000000,225.000000) scale(0.100000,-0.100000)"
fill="#ffff" stroke="none">
<path d="M815 2156 c-42 -19 -452 -435 -460 -466 -3 -14 -4 -362 -3 -775 3
-732 3 -751 23 -777 43 -59 36 -58 594 -58 l511 0 0 30 0 30 -500 0 c-344 0
-507 3 -523 11 -14 6 -30 22 -36 36 -8 17 -11 237 -11 743 l0 720 183 0 c163
0 185 2 214 20 57 34 63 59 63 260 l0 180 451 0 c448 0 480 -2 501 -34 4 -6 8
-210 8 -452 l0 -442 23 -6 c12 -3 25 -6 30 -6 4 0 7 205 7 456 0 506 1 497
-66 529 -45 21 -962 22 -1009 1z"/>
<path d="M1000 1740 l0 -30 345 0 345 0 0 30 0 30 -345 0 -345 0 0 -30z"/>
<path d="M1007 1573 c-4 -3 -7 -19 -7 -35 l0 -28 345 0 345 0 0 35 0 35 -338
0 c-186 0 -342 -3 -345 -7z"/>
<path d="M550 1350 l0 -30 570 0 570 0 0 30 0 30 -570 0 -570 0 0 -30z"/>
<path d="M1560 1176 l0 -45 -57 -11 c-127 -27 -193 -77 -219 -169 -29 -96 -1
-196 71 -259 44 -39 70 -53 209 -108 61 -25 119 -52 129 -62 26 -23 19 -73
-13 -89 -57 -29 -204 -9 -339 46 l-71 29 0 -107 0 -107 68 -22 c37 -12 102
-27 145 -34 l77 -12 0 -57 0 -57 65 -4 65 -3 0 66 0 66 45 6 c159 22 258 160
225 314 -21 99 -100 160 -297 233 -102 38 -133 62 -133 100 0 39 23 50 109 50
60 0 128 -15 234 -52 5 -2 25 38 46 89 l38 91 -69 22 c-37 12 -97 26 -133 32
l-65 11 0 43 0 44 -65 0 -65 0 0 -44z"/>
<path d="M550 1150 l0 -30 383 0 c329 0 386 2 405 15 12 9 39 22 59 30 33 12
-16 14 -404 14 l-443 1 0 -30z"/>
<path d="M550 950 l0 -30 328 2 327 3 3 28 3 27 -330 0 -331 0 0 -30z"/>
<path d="M550 753 l0 -33 340 0 c356 0 349 -1 332 43 -7 16 -32 18 -340 20
l-332 2 0 -32z"/>
<path d="M550 535 l0 -35 325 0 325 0 0 35 0 35 -325 0 -325 0 0 -35z"/>
</g>
</svg>
