<?xml version="1.0" standalone="no"?>
<!DOCTYPE svg PUBLIC "-//W3C//DTD SVG 20010904//EN"
 "http://www.w3.org/TR/2001/REC-SVG-20010904/DTD/svg10.dtd">
<svg version="1.0" xmlns="http://www.w3.org/2000/svg"
 width="128.000000pt" height="128.000000pt" viewBox="0 0 128.000000 128.000000"
 preserveAspectRatio="xMidYMid meet">
<metadata>
Created by potrace 1.15, written by Peter Selinger 2001-2017
</metadata>
<g transform="translate(0.000000,128.000000) scale(0.100000,-0.100000)"
fill="#ffff" stroke="none">
<path d="M585 1175 c-25 -24 -25 -24 -25 -240 l0 -215 -215 0 c-216 0 -216 0
-240 -25 -16 -15 -25 -36 -25 -55 0 -19 9 -40 25 -55 24 -25 24 -25 240 -25
l215 0 0 -215 c0 -216 0 -216 25 -240 32 -33 78 -33 110 0 25 24 25 24 25 240
l0 215 215 0 c216 0 216 0 240 25 33 32 33 78 0 110 -24 25 -24 25 -240 25
l-215 0 0 215 c0 216 0 216 -25 240 -15 16 -36 25 -55 25 -19 0 -40 -9 -55
-25z"/>
</g>
</svg>
