<?xml version="1.0" standalone="no"?>
<!DOCTYPE svg PUBLIC "-//W3C//DTD SVG 20010904//EN"
 "http://www.w3.org/TR/2001/REC-SVG-20010904/DTD/svg10.dtd">
<svg version="1.0" xmlns="http://www.w3.org/2000/svg"
 width="225.000000pt" height="225.000000pt" viewBox="0 0 225.000000 225.000000"
 preserveAspectRatio="xMidYMid meet">
<metadata>
Created by potrace 1.15, written by Peter Selinger 2001-2017
</metadata>
<g transform="translate(0.000000,225.000000) scale(0.100000,-0.100000)"
fill="#ffff" stroke="none">
<path d="M595 2008 c-3 -7 -6 -85 -7 -173 l-3 -160 -69 -6 c-65 -5 -72 -8
-107 -46 -33 -36 -43 -41 -94 -45 -59 -5 -94 -24 -129 -72 -16 -21 -22 -46
-24 -111 l-4 -83 -41 -5 c-53 -7 -89 -35 -106 -83 -13 -36 -9 -66 58 -444 39
-223 76 -419 81 -436 12 -36 64 -89 103 -103 19 -8 325 -11 954 -11 1023 0
968 -3 1016 64 l22 31 0 577 c0 567 0 577 -21 604 -46 62 -65 69 -200 72
l-124 4 0 207 c0 148 -3 210 -12 219 -18 18 -1287 17 -1293 0z m1235 -378 l0
-320 -585 0 -585 0 0 320 0 320 585 0 585 0 0 -320z m-1240 -175 l0 -145 -180
0 -180 0 0 69 c0 59 4 74 24 98 21 25 33 29 97 33 64 4 75 8 85 27 24 50 45
63 101 63 l53 0 0 -145z m1561 26 l29 -29 -1 -379 c0 -208 -3 -373 -5 -367 -3
6 -24 119 -47 251 -26 144 -50 251 -60 266 -27 41 -83 78 -127 84 l-40 6 0 98
0 99 111 0 c109 0 111 0 140 -29z m-192 -254 c52 -26 58 -47 133 -474 70 -403
72 -412 53 -433 -18 -20 -24 -20 -941 -20 l-922 0 -31 25 c-16 14 -32 34 -35
43 -6 20 -146 808 -146 822 0 6 9 19 20 30 20 20 33 20 933 20 704 0 917 -3
936 -13z"/>
<path d="M774 1708 c-15 -47 -3 -48 474 -46 397 3 446 5 455 19 6 9 7 24 4 33
-6 14 -50 16 -466 16 l-460 0 -7 -22z"/>
<path d="M779 1514 c-9 -11 -10 -20 -2 -32 9 -15 38 -17 269 -17 l259 0 0 30
0 30 -256 3 c-225 2 -258 0 -270 -14z"/>
<path d="M1381 1511 c-7 -13 -7 -23 2 -35 11 -14 32 -16 167 -14 155 3 155 3
158 27 2 13 -2 28 -10 32 -7 5 -79 9 -160 9 -134 0 -148 -2 -157 -19z"/>
</g>
</svg>
