<?xml version="1.0" standalone="no"?>
<!DOCTYPE svg PUBLIC "-//W3C//DTD SVG 20010904//EN"
 "http://www.w3.org/TR/2001/REC-SVG-20010904/DTD/svg10.dtd">
<svg version="1.0" xmlns="http://www.w3.org/2000/svg"
 width="256.000000pt" height="256.000000pt" viewBox="0 0 256.000000 256.000000"
 preserveAspectRatio="xMidYMid meet">
<metadata>
Created by potrace 1.15, written by Peter Selinger 2001-2017
</metadata>
<g transform="translate(0.000000,256.000000) scale(0.100000,-0.100000)"
fill="#ffff" stroke="none">
<path d="M1276 2044 c-3 -9 -6 -83 -6 -165 l0 -149 -29 0 c-25 0 -40 14 -112
113 l-84 112 -282 0 -283 0 -31 -31 c-21 -21 -32 -44 -36 -72 -5 -40 -7 -42
-40 -42 -19 0 -50 -7 -69 -16 -67 -32 -65 -11 -62 -660 l3 -586 28 -24 28 -24
816 0 815 0 34 34 c33 33 34 37 34 110 l0 76 148 0 c102 0 152 4 160 12 9 9
12 145 12 550 l0 538 -145 120 -144 120 -375 0 c-332 0 -375 -2 -380 -16z
m704 -149 c0 -93 2 -105 19 -115 11 -5 74 -10 140 -10 l121 0 0 -490 0 -490
-215 0 -215 0 0 366 0 366 -29 29 -29 29 -216 0 -216 0 0 210 0 210 320 0 320
0 0 -105z m-900 -92 c93 -130 97 -133 147 -133 l43 0 0 -45 0 -46 -117 3 -118
3 -62 85 c-34 47 -73 97 -87 113 l-24 27 -191 0 -191 0 0 33 c0 19 3 37 7 40
3 4 124 7 269 7 l262 0 62 -87z m-156 -173 l80 -110 372 0 c297 0 374 -3 383
-13 7 -9 11 -159 13 -480 l3 -467 -722 0 c-643 0 -723 2 -737 16 -14 14 -16
79 -16 570 0 364 4 562 10 575 10 18 24 19 273 19 l262 0 79 -110z m1016 -974
c0 -70 -14 -96 -52 -96 -41 0 -58 28 -58 97 l0 63 55 0 55 0 0 -64z"/>
<path d="M463 1303 c-10 -3 -13 -61 -13 -238 0 -203 2 -234 16 -239 9 -3 145
-6 303 -6 210 0 290 3 299 12 9 9 12 75 12 235 0 210 -1 223 -19 233 -20 10
-573 14 -598 3z m557 -238 l0 -175 -255 0 -255 0 0 175 0 175 255 0 255 0 0
-175z"/>
<path d="M600 1185 c0 -8 -9 -24 -20 -35 -29 -29 -25 -58 15 -94 43 -39 43
-46 6 -46 -17 0 -31 -6 -35 -16 -8 -20 1 -34 20 -34 8 0 14 -7 14 -15 0 -8 9
-15 20 -15 11 0 20 7 20 15 0 8 9 24 20 35 30 30 25 62 -17 101 l-38 34 33 3
c26 3 32 7 32 28 0 15 -6 24 -15 24 -8 0 -15 7 -15 15 0 8 -9 15 -20 15 -11 0
-20 -7 -20 -15z"/>
<path d="M740 1185 c0 -9 -9 -29 -21 -44 -26 -35 -19 -62 22 -91 37 -27 37
-40 0 -40 -36 0 -52 -39 -20 -47 10 -3 19 -12 19 -19 0 -8 9 -14 20 -14 11 0
20 7 20 15 0 8 9 24 20 35 29 29 25 67 -10 98 -37 32 -38 42 -5 42 20 0 25 5
25 25 0 16 -6 25 -15 25 -8 0 -15 7 -15 15 0 8 -9 15 -20 15 -11 0 -20 -7 -20
-15z"/>
<path d="M890 1187 c0 -8 -9 -22 -20 -32 -29 -26 -25 -66 10 -100 17 -16 30
-32 30 -37 0 -4 -13 -8 -30 -8 -25 0 -30 -4 -30 -25 0 -16 6 -25 15 -25 8 0
15 -7 15 -15 0 -8 9 -15 20 -15 11 0 20 6 20 13 0 8 9 22 20 32 31 28 27 79
-10 105 -36 26 -38 40 -6 40 24 0 41 23 30 41 -3 5 -12 9 -19 9 -9 0 -12 6 -9
15 4 10 0 15 -15 15 -12 0 -21 -6 -21 -13z"/>
<path d="M1200 1055 c-10 -12 -10 -18 0 -30 11 -13 47 -15 239 -13 l226 3 0
25 0 25 -226 3 c-192 2 -228 0 -239 -13z"/>
<path d="M1200 925 c-10 -12 -10 -18 0 -30 11 -13 47 -15 239 -13 l226 3 0 25
0 25 -226 3 c-192 2 -228 0 -239 -13z"/>
</g>
</svg>
