<?xml version="1.0" standalone="no"?>
<!DOCTYPE svg PUBLIC "-//W3C//DTD SVG 20010904//EN"
 "http://www.w3.org/TR/2001/REC-SVG-20010904/DTD/svg10.dtd">
<svg version="1.0" xmlns="http://www.w3.org/2000/svg"
 width="225.000000pt" height="225.000000pt" viewBox="0 0 225.000000 225.000000"
 preserveAspectRatio="xMidYMid meet">
<metadata>
Created by potrace 1.15, written by Peter Selinger 2001-2017
</metadata>
<g transform="translate(0.000000,225.000000) scale(0.100000,-0.100000)"
fill="#ffff" stroke="none">
<path d="M196 2105 c-21 -7 -56 -31 -77 -51 -73 -72 -70 -23 -67 -951 l3 -831
30 -44 c17 -23 51 -54 75 -68 l45 -25 921 0 921 0 48 30 c36 22 57 45 77 84
l28 53 0 694 c0 771 3 734 -67 806 -20 21 -53 43 -72 50 -26 8 -182 12 -556
12 l-520 1 -50 93 c-53 97 -90 134 -155 152 -57 16 -537 12 -584 -5z m555 -85
c47 -13 71 -41 133 -152 l51 -93 553 -5 554 -5 34 -37 34 -38 0 -685 c0 -748
2 -721 -57 -761 -27 -18 -63 -19 -916 -22 -985 -3 -937 -6 -978 62 -18 30 -19
66 -19 836 0 761 1 807 18 839 36 66 58 71 322 71 129 0 251 -5 271 -10z"/>
<path d="M616 1484 c-19 -19 -21 -48 -3 -62 7 -6 32 -12 56 -14 l44 -3 18 -70
c114 -456 126 -491 177 -514 14 -7 118 -11 268 -11 l246 0 32 33 c28 28 38 54
75 197 53 202 58 232 39 248 -11 8 -113 12 -373 14 l-358 3 -22 82 c-12 45
-27 89 -34 97 -19 22 -143 22 -165 0z m869 -296 c-3 -13 -23 -81 -43 -153
l-37 -130 -229 0 -229 0 -19 65 c-10 36 -29 104 -42 153 l-24 87 314 0 314 0
-5 -22z"/>
<path d="M903 746 c-39 -18 -63 -62 -63 -117 0 -33 6 -47 34 -75 28 -28 41
-34 78 -34 60 0 104 29 119 79 30 101 -72 190 -168 147z"/>
<path d="M1321 741 c-107 -57 -64 -221 58 -221 63 0 110 43 118 108 5 48 -25
98 -72 118 -44 18 -62 17 -104 -5z"/>
</g>
</svg>
