<?xml version="1.0" standalone="no"?>
<!DOCTYPE svg PUBLIC "-//W3C//DTD SVG 20010904//EN"
 "http://www.w3.org/TR/2001/REC-SVG-20010904/DTD/svg10.dtd">
<svg version="1.0" xmlns="http://www.w3.org/2000/svg"
 width="604.000000pt" height="698.000000pt" viewBox="0 0 604.000000 698.000000"
 preserveAspectRatio="xMidYMid meet">
<metadata>
Created by potrace 1.15, written by Peter Selinger 2001-2017
</metadata>
<g transform="translate(0.000000,698.000000) scale(0.100000,-0.100000)"
fill="#fff" stroke="none">
<path d="M2927 5834 c-286 -52 -582 -230 -728 -438 -102 -144 -121 -240 -120
-601 1 -460 20 -637 87 -843 70 -215 181 -398 331 -545 176 -173 368 -257 598
-260 221 -2 417 83 591 258 192 194 317 437 380 739 21 103 26 165 35 421 17
524 -6 682 -125 849 -177 249 -563 438 -886 435 -47 0 -120 -7 -163 -15z m853
-1244 l0 -270 -667 2 -668 3 -3 255 c-1 140 0 260 3 267 3 10 142 13 670 13
l665 0 0 -270z"/>
<path d="M2440 3299 c-30 -12 -63 -23 -72 -26 -17 -5 -18 -40 -18 -544 l0
-539 -215 0 -215 0 0 436 0 436 -24 -6 c-13 -3 -142 -64 -287 -136 -291 -143
-318 -163 -344 -255 -12 -45 -58 -352 -176 -1195 -22 -157 -43 -293 -45 -302
-5 -17 18 -18 390 -18 l396 0 0 445 0 445 630 0 630 0 0 -445 0 -445 1026 0
c972 0 1025 1 1021 18 -3 9 -28 177 -56 372 -27 195 -73 517 -101 715 -28 198
-58 384 -66 413 -20 70 -80 132 -157 160 -31 12 -125 56 -209 98 -299 150
-844 394 -881 394 -4 0 -1 -13 8 -30 22 -43 19 -51 -38 -93 -78 -57 -202 -114
-313 -144 -86 -23 -118 -26 -249 -26 -123 0 -165 4 -230 21 -81 22 -248 97
-275 123 -8 8 -32 27 -52 43 l-37 28 19 39 c24 46 19 47 -60 18z"/>
<path d="M2012 1823 l3 -88 120 0 120 0 3 88 3 87 -126 0 -126 0 3 -87z"/>
</g>
</svg>
