<?xml version="1.0" standalone="no"?>
<!DOCTYPE svg PUBLIC "-//W3C//DTD SVG 20010904//EN"
 "http://www.w3.org/TR/2001/REC-SVG-20010904/DTD/svg10.dtd">
<svg version="1.0" xmlns="http://www.w3.org/2000/svg"
 width="1600.000000pt" height="1600.000000pt" viewBox="0 0 1600.000000 1600.000000"
 preserveAspectRatio="xMidYMid meet">
<metadata>
Created by potrace 1.15, written by Peter Selinger 2001-2017
</metadata>
<g transform="translate(0.000000,1600.000000) scale(0.100000,-0.100000)"
fill="#fff" stroke="none">
<path d="M7220 15989 c-2713 -126 -4940 -952 -5722 -2124 -72 -108 -177 -320
-212 -429 -56 -169 -70 -266 -70 -466 0 -152 4 -203 22 -282 70 -319 235 -618
502 -909 l80 -87 0 -1147 0 -1147 -71 -76 c-280 -300 -449 -608 -516 -937 -25
-124 -25 -406 0 -523 64 -300 213 -568 516 -932 l71 -85 0 -1177 0 -1177 -89
-95 c-266 -286 -428 -586 -498 -916 -27 -128 -24 -420 5 -553 145 -658 694
-1240 1627 -1723 1732 -896 4512 -1243 7050 -879 2096 300 3706 1041 4347
2000 74 111 178 323 212 432 53 170 69 276 69 448 0 116 -4 182 -17 240 -65
292 -226 599 -485 920 l-101 125 0 1178 0 1179 86 94 c426 466 594 958 494
1449 -59 287 -200 545 -493 900 l-87 105 0 1149 0 1149 68 74 c230 255 380
495 462 742 163 487 65 990 -283 1458 -163 219 -487 516 -770 706 -1051 705
-2681 1171 -4537 1297 -444 30 -1235 39 -1660 19z m1570 -1233 c1007 -77 1756
-212 2535 -458 869 -273 1619 -697 1896 -1069 163 -220 141 -377 -85 -616
-419 -443 -1293 -860 -2361 -1127 -697 -174 -1419 -275 -2250 -316 -272 -14
-1031 -14 -1300 0 -1082 54 -2029 219 -2875 499 -956 318 -1679 760 -1882
1152 -30 58 -33 72 -33 149 0 74 4 92 29 140 209 400 918 838 1871 1156 847
282 1773 444 2865 504 256 14 1353 4 1590 -14z m-896 -6050 c6 -7 77 -91 157
-187 777 -928 1354 -1842 1558 -2469 66 -203 75 -266 75 -490 0 -175 -3 -220
-23 -310 -114 -532 -441 -945 -932 -1179 -538 -256 -1201 -251 -1731 14 -544
273 -880 770 -928 1374 -11 132 -9 191 11 326 95 642 709 1670 1658 2778 74
86 137 157 139 157 3 0 10 -6 16 -14z"/>
<path d="M5285 13574 c-218 -23 -371 -53 -509 -101 -638 -221 -718 -666 -169
-937 540 -267 1437 -220 1860 99 160 119 230 276 189 417 -69 239 -403 433
-866 503 -102 15 -424 27 -505 19z"/>
<path d="M7680 7924 c0 -29 -214 -399 -505 -874 -249 -405 -339 -563 -440
-772 -137 -282 -192 -493 -182 -693 25 -464 268 -861 677 -1104 47 -28 88 -51
93 -51 4 0 0 17 -9 38 -99 227 -180 529 -215 797 -15 112 -6 402 16 540 54
344 144 686 345 1319 177 559 242 788 226 803 -3 4 -6 2 -6 -3z"/>
</g>
</svg>
