<?xml version="1.0" standalone="no"?>
<!DOCTYPE svg PUBLIC "-//W3C//DTD SVG 20010904//EN"
 "http://www.w3.org/TR/2001/REC-SVG-20010904/DTD/svg10.dtd">
<svg version="1.0" xmlns="http://www.w3.org/2000/svg"
 width="200.000000pt" height="200.000000pt" viewBox="0 0 200.000000 200.000000"
 preserveAspectRatio="xMidYMid meet">
<metadata>
Created by potrace 1.15, written by Peter Selinger 2001-2017
</metadata>
<g transform="translate(0.000000,200.000000) scale(0.100000,-0.100000)"
fill="#fff" stroke="none">
<path d="M465 1744 c-209 -134 -399 -257 -422 -274 l-43 -30 0 -77 c0 -43 9
-267 21 -498 17 -357 23 -424 37 -444 14 -19 127 -60 592 -217 348 -117 590
-194 613 -194 37 0 51 12 351 305 172 167 329 322 350 345 l36 40 0 493 0 494
-22 20 c-17 16 -152 54 -543 152 -286 72 -536 131 -555 130 -28 0 -112 -50
-415 -245z m569 93 l128 -33 -291 -232 -292 -232 -174 52 c-96 28 -174 52
-172 53 16 14 662 425 666 425 3 0 64 -15 135 -33z m594 -148 c92 -23 171 -45
175 -49 7 -6 -510 -449 -563 -482 -15 -10 -49 -3 -182 36 -90 27 -166 51 -171
53 -5 3 560 482 571 483 1 0 78 -19 170 -41z m-25 -1207 l-278 -274 -6 234
c-4 128 -7 315 -8 414 l-1 181 283 236 282 237 3 -378 3 -377 -278 -273z
m-1288 799 l190 -58 3 -146 3 -147 32 0 c18 0 43 -8 57 -17 15 -11 39 -16 67
-14 33 1 56 -5 88 -23 24 -15 46 -26 49 -26 3 0 6 63 6 140 l0 140 23 -5 c12
-3 94 -28 182 -54 l160 -49 5 -428 c3 -236 5 -430 4 -431 0 -2 -231 74 -512
168 l-512 171 0 36 c0 21 -9 206 -20 412 -22 428 -21 390 -17 390 1 0 88 -27
192 -59z"/>
<path d="M1735 1128 c-20 -54 -45 -133 -45 -141 0 -6 5 -5 13 1 9 8 11 -12 9
-99 -2 -60 1 -109 6 -109 4 0 21 13 36 29 26 28 27 31 25 135 -1 70 3 111 10
120 10 12 8 21 -10 45 -24 33 -37 38 -44 19z"/>
<path d="M1586 944 c-29 -87 -31 -98 -16 -89 6 4 10 -32 10 -99 0 -58 4 -106
8 -106 5 0 20 13 35 28 26 27 27 33 27 130 0 56 -3 102 -7 102 -3 0 -16 -8
-27 -17 -12 -10 -4 1 17 24 l39 41 -30 33 -29 33 -27 -80z"/>
<path d="M1678 720 c-124 -119 -138 -135 -138 -166 0 -19 3 -34 8 -34 4 0 67
60 140 133 123 124 133 136 130 167 l-3 33 -137 -133z"/>
</g>
</svg>
