<?xml version="1.0" standalone="no"?>
<!DOCTYPE svg PUBLIC "-//W3C//DTD SVG 20010904//EN"
 "http://www.w3.org/TR/2001/REC-SVG-20010904/DTD/svg10.dtd">
<svg version="1.0" xmlns="http://www.w3.org/2000/svg"
 width="397.000000pt" height="265.000000pt" viewBox="0 0 397.000000 265.000000"
 preserveAspectRatio="xMidYMid meet">
<metadata>
Created by potrace 1.15, written by Peter Selinger 2001-2017
</metadata>
<g transform="translate(0.000000,265.000000) scale(0.100000,-0.100000)"
fill="#fff" stroke="none">
<path d="M1712 2454 c-32 -22 -30 -67 3 -82 14 -7 35 -12 45 -12 19 0 20 -9
20 -239 l0 -239 -127 -221 c-70 -122 -130 -221 -133 -221 -3 0 -20 26 -38 59
l-32 59 0 296 0 296 28 0 c36 0 65 31 65 70 0 16 -8 39 -18 50 -18 19 -30 20
-395 20 -367 0 -378 -1 -404 -21 -50 -39 -17 -119 50 -119 l24 0 0 -312 0
-312 -257 -445 c-282 -488 -290 -504 -309 -576 -43 -159 13 -288 154 -357 l67
-33 654 -3 c577 -2 660 -1 710 13 61 18 144 66 165 97 11 16 14 16 19 4 10
-25 108 -83 168 -101 50 -14 135 -15 710 -13 l654 3 67 33 c141 69 197 198
154 358 -19 71 -31 95 -324 602 l-262 452 0 295 0 295 28 0 c46 0 72 25 72 70
0 71 5 70 -421 70 -366 0 -377 -1 -403 -21 -52 -41 -16 -119 55 -119 l29 0 0
-307 c0 -269 -6 -352 -23 -333 -2 3 -54 92 -116 199 l-111 193 0 229 0 229 23
0 c13 0 28 5 35 12 16 16 16 70 0 86 -9 9 -91 12 -308 12 -251 0 -299 -2 -318
-16z m508 -334 l0 -240 -195 0 -195 0 0 240 0 240 195 0 195 0 0 -240z m-850
-285 l0 -315 -245 0 -245 0 0 315 0 315 245 0 245 0 0 -315z m1720 0 l0 -315
-245 0 -245 0 0 315 0 315 245 0 245 0 0 -315z m-1154 -81 c16 -16 24 -32 21
-44 -9 -33 -292 -519 -301 -517 -4 2 -22 28 -39 59 l-31 55 128 224 c70 123
135 230 144 237 24 19 50 14 78 -14z m-931 -379 c14 -13 25 -36 25 -50 0 -25
-444 -809 -483 -852 -42 -47 -137 -12 -137 49 0 23 454 823 487 861 24 26 79
22 108 -8z m1719 4 c50 -39 44 -53 -210 -494 -129 -226 -243 -416 -251 -423
-18 -13 -61 -16 -88 -6 -22 9 -47 61 -40 85 12 36 475 834 492 847 25 18 67
15 97 -9z m-662 -651 c-16 -29 -38 -67 -48 -85 l-18 -31 -33 54 c-18 30 -40
68 -48 85 l-16 29 97 0 96 0 -30 -52z"/>
</g>
</svg>
