<?xml version="1.0" standalone="no"?>
<!DOCTYPE svg PUBLIC "-//W3C//DTD SVG 20010904//EN"
 "http://www.w3.org/TR/2001/REC-SVG-20010904/DTD/svg10.dtd">
<svg version="1.0" xmlns="http://www.w3.org/2000/svg"
 width="225.000000pt" height="225.000000pt" viewBox="0 0 225.000000 225.000000"
 preserveAspectRatio="xMidYMid meet">
<metadata>
Created by potrace 1.15, written by Peter Selinger 2001-2017
</metadata>
<g transform="translate(0.000000,225.000000) scale(0.100000,-0.100000)"
fill="#fff" stroke="none">
<path d="M596 1251 c-45 -30 -66 -70 -66 -126 0 -88 57 -145 145 -145 88 0
145 57 145 145 0 88 -57 145 -145 145 -32 0 -60 -7 -79 -19z"/>
<path d="M1046 1251 c-45 -30 -66 -70 -66 -126 0 -88 57 -145 145 -145 88 0
145 57 145 145 0 88 -57 145 -145 145 -32 0 -60 -7 -79 -19z"/>
<path d="M1496 1251 c-45 -30 -66 -70 -66 -126 0 -88 57 -145 145 -145 88 0
145 57 145 145 0 88 -57 145 -145 145 -32 0 -60 -7 -79 -19z"/>
</g>
</svg>
